<?xml version="1.0" encoding="UTF-8"?>
<svg id="Layer_1" data-name="Layer 1" xmlns="http://www.w3.org/2000/svg" viewBox="0 0 2016.97 670">
  <defs>
    <style>
      .cls-1 {
        fill: #fff;
      }
    </style>
  </defs>
  <path class="cls-1" d="m0,383h58.21c.37.63.66.9.67,1.18.42,8.45.47,8.73-9.22,10.65-3.79.75-4.76,2.16-4.73,5.79.15,20.33-.2,40.67.17,61,.23,12.36,7.72,22.29,20.9,24.48,19.92,3.31,30.14-10.47,30.86-25.42.91-18.9.66-37.86,1.26-56.79.13-4.18-1.41-5.89-5.08-6.86-4.88-1.29-9.69-2.87-14.8-4.41v-9.34h49.38v9.27c-4.39,1.64-8.91,3.32-13.62,5.07,0,18.7.14,37.36-.05,56.01-.12,11.55-2.96,22.45-10.61,31.4-6.88,8.05-16.45,11.92-26.5,13.79-12.57,2.33-25.16,1.33-37.37-2.81-14.48-4.91-23.98-16.65-24.4-31.12-.6-20.59-.94-41.2-.91-61.8,0-4.65-1.3-6.97-5.66-7.9C5.64,394.55,2.83,393.73,0,393c0-3.33,0-6.67,0-10Z"/>
  <path class="cls-1" d="m189,0c9.45,9.29,18.92,18.56,28.35,27.87,1.87,1.85,3.29,2.99,6.62,2.34,12.64-2.48,25.41-4.38,38.2-5.99,3.12-.39,8.34.1,9.34,1.95,2.09,3.87-2.25,5.93-5.14,8.17-8.11,6.29-16.03,12.81-24.17,19.36,8.91,8.91,17.77,17.79,26.41,26.42-3.15,5.29-7.02,4.21-10.42,3.43-11.56-2.69-23.15-5.33-34.51-8.71-5.02-1.49-8.06.28-11.34,3.3-7.04,6.49-14.05,13.01-21.3,19.25-5.14,4.43-9.02,3.25-10.3-3.23-.82-4.16-.53-8.54-.74-12.82-.25-4.91-.51-9.82-.77-14.77-15.7-4.59-30.95-9.05-46.2-13.51-.78-.23-1.71-.31-2.28-.79-1.33-1.13-2.49-2.47-3.72-3.72,1.54-1.18,2.93-3.08,4.63-3.41,6.56-1.3,13.19-2.23,19.83-3.06,9.27-1.16,18.57-2.1,28.52-3.2,0-1.81-.05-3.58,0-5.35.32-10.09.63-20.19,1.03-30.28.04-1.09.62-2.16.96-3.24,2.33,0,4.67,0,7,0Z"/>
  <path class="cls-1" d="m0,288c10.93-2.32,21.85-4.64,32.81-6.97-1.67-7.67-3.29-14.63-4.6-21.66-.23-1.22.69-3.77,1.29-3.84,1.98-.22,4.41-.17,6.02.82,6.39,3.93,12.54,8.25,18.76,12.45,2.3,1.55,4.55,3.18,6.82,4.78,3.25,2.28,6.47,2.55,10.57,1.82,8.06-1.43,16.33-1.84,24.53-2.26,1.82-.09,4.12,1.19,5.41,2.57.56.6-.59,3.24-1.46,4.65-2.23,3.6-4.58,7.15-7.18,10.49-2.22,2.86-2.35,4.95.67,7.4,5.36,4.36,10.56,8.93,15.61,13.65,1.23,1.15,1.63,3.2,2.41,4.83-1.85.4-3.79,1.39-5.53,1.11-9.66-1.54-19.26-3.43-28.91-5.07-1.02-.17-2.48.15-3.23.81-4.59,4.05-9.05,8.24-13.51,12.42-4.56,4.27-7.93,3.8-10.78-1.79-1.77-3.48-3.58-7.01-4.78-10.71-2.57-7.95-8.34-10.94-16.08-12.71C19.07,298.57,9.6,295,0,292c0-1.33,0-2.67,0-4Z"/>
  <path class="cls-1" d="m445,670c-4.18-7.28-12.28-7.01-19.37-9.61,3.32-5.54,12.88-5.43,11.22-13.72,10.37,1.02,20.19,1.99,30.7,3.02-6.48,6.6,1.2,9.38,4.04,13.68-7.82,1.98-15.96.34-21.59,6.64h-5Z"/>
  <path class="cls-1" d="m901.71,327.8h-51.11q-1.4-8.2,12.4-13.57c0-13.89.84-27.94-.22-41.84-1.19-15.71-10.57-19.12-24.48-16.95-7.42,1.16-7.31,1.73-7.3,9.25.01,14.49.19,28.99-.11,43.48-.09,4.48.95,6.71,5.57,7.98,8.26,2.28,8.16,2.63,7.13,11.58h-50.12q-1.15-8.81,11.5-12.88c0-15.62,1.14-31.14-.37-46.39-1.17-11.88-10.98-14.81-22.99-13.17-2.84.39-5.54,1.81-8.61,2.86,0,17.95-.05,35.75.12,53.54.01,1.12,1.57,2.42,2.68,3.28.84.65,2.14.71,3.21,1.09q7.63,2.72,6.55,11.67h-51.12c-1.08-8.64-1.22-9.19,6.7-11.11,5.95-1.44,7.11-4.37,6.99-9.97-.37-17.3-.14-34.62-.14-52.48h-15.7v-10.03c11.7-3.06,23.69-6.2,35.76-9.36,1.75,5.19,3.03,8.98,4.38,12.97,8.34-6.92,18.03-10.66,28.59-11.64,11.3-1.05,20.58,3.01,26.46,13.26,10.6-8.12,21.67-13.63,34.65-13.28,16.11.43,24.59,9.97,25.68,25.15,1.15,16.03.98,32.17,1.09,48.27.02,3.81,1.05,6,4.89,6.54.32.05.62.19.93.29q7.69,2.63,6.99,11.47Z"/>
  <path class="cls-1" d="m368.5,327.98c-11.88,0-23.84.15-35.78-.19-1.49-.04-3.38-2.37-4.3-4.06-7.96-14.63-15.74-29.36-23.38-43.72h-10.03c0,10.86-.07,21.31.11,31.77.02,1.04,1.41,2.44,2.51,3.01,1.85.96,3.96,1.47,6,2.04q7.84,2.21,7.04,10.86h-60.11c-.2-.42-.44-.69-.45-.98-.33-8.27-.42-8.82,8.86-10.44,5.9-1.03,7.22-3.49,7.16-9.05-.28-24.82-.25-49.66,0-74.48.04-4.25-1.49-6.03-5.25-6.69-.97-.17-1.95-.28-2.89-.56q-8.54-2.62-7.65-12.22c1.38-.09,2.83-.25,4.27-.26,20.33-.02,40.66-.28,60.99.1,10.08.19,19.81,2.66,27.64,9.67,14.92,13.36,14.13,44.53-12.15,53.25,2.75,4.58,5.38,9.08,8.14,13.51,4.05,6.51,8.43,12.83,12.2,19.5,2.53,4.47,6.76,5.91,10.93,7.64,7.21,2.98,7.24,2.91,6.15,11.3Zm-73.2-102.69v41.48c15.86-.09,27.17-5.74,26.7-21.36-.4-13.29-8.08-20.78-26.7-20.12Z"/>
  <path class="cls-1" d="m655,258.54c0,17.56-.07,35.04.14,52.52.02,1.35,1.87,2.75,3.04,3.96.52.54,1.46.7,2.23.96q8.1,2.76,7.26,11.71h-51.14c-1.3-8.68-1.42-9.14,6.97-11.29,5.37-1.38,6.68-3.84,6.64-9.15-.26-33.15-.13-66.31-.13-100.01h-15.66v-10.19c13.33-2.19,25.7-9.48,40.36-7.86v58.44c4.93-2.65,9.09-5.37,13.61-7.23,9.66-3.97,19.48-6.16,29.99-2.52,7.59,2.63,11.98,8.17,14.43,15.05,1.71,4.82,2.07,10.27,2.18,15.46.29,12.99.41,26-.06,38.98-.18,5.16,1.44,7.6,6.17,9.26,7.34,2.58,7.24,2.85,6.79,10.99h-51.17c-1.68-8.34-1.79-8.77,6.28-10.91,5.84-1.55,7.58-4.38,7.25-10.3-.56-9.8.38-19.69-.36-29.47-.41-5.47-1.67-11.68-4.76-15.97-6.02-8.36-15.25-6.59-23.91-4.54-2.02.48-3.94,1.34-6.12,2.1Z"/>
  <path class="cls-1" d="m1054.81,327.82c-1.09.07-1.89.16-2.69.16-16.14,0-32.28,0-48.35,0-1.94-8.36-1.85-9.07,6.05-11.24,5.66-1.55,7.52-4.22,7.36-10.22-.48-17.28-.17-34.59-.17-52.43h-15.74v-9.85c12.01-2.39,23.34-8.41,36.3-8.36,1.3,4.37,2.5,8.39,3.43,11.52,7.11-3.17,14.2-7,21.73-9.52,9.62-3.23,19.26-2.88,28.15,3.07,6.21,4.15,9.17,10.4,9.96,17.27,1.02,8.84.98,17.82,1.13,26.75.17,9.81.04,19.63.04,29.55,2.04.65,3.88,1.2,5.7,1.82q7.69,2.6,7.03,11.33h-51.14c-1.5-8.43-1.59-8.73,6.36-11,4.83-1.38,6.35-3.77,6.17-8.75-.4-11.15-.12-22.32-.13-33.48,0-14.99-9.85-22.71-24.5-19.21q-9.5,2.27-9.5,12.11c0,13.33.28,26.66-.14,39.97-.16,5.08,1.3,7.62,6.1,9.29,7.38,2.57,7.27,2.87,6.85,11.21Z"/>
  <path class="cls-1" d="m148,424c-3.02,0-5.34,0-7.65,0s-4.58,0-7.34,0c0-2.91-.15-5.38.08-7.81.09-.89.95-2.24,1.71-2.45,9.86-2.68,19.75-5.3,29.68-7.68,3.35-.8,5.63.27,5.87,4.46.14,2.47,1.48,4.86,2.08,6.68,6.69-3.11,13.19-6.88,20.17-9.22,9.52-3.19,19.51-3.91,28.46,1.77,8.36,5.29,11.62,13.94,11.84,23.4.36,15.31.19,30.64.03,45.96-.04,3.45.51,5.79,4.44,6.06.45.03.84.56,1.3.71q8.16,2.74,6.8,11.88h-50.74c-1.98-8.21-1.6-9.7,6.36-11.54,5.91-1.37,7.34-4.14,7.05-9.82-.5-9.63.16-19.32-.26-28.97-.2-4.63-1.2-9.41-2.8-13.76-2.58-7.01-11.31-11.13-18.51-9.48-1.27.29-2.53.58-3.81.8-8.9,1.5-9.75,2.49-9.75,11.53,0,14.49.09,28.98-.07,43.47-.03,3.04.84,4.64,3.85,5.06.62.09,1.18.57,1.8.77q8.12,2.75,6.98,11.9h-51.34v-9.07c4.53-1.75,10.88-2.27,13.03-5.55,2.31-3.53.73-9.64.75-14.63.03-14.63.01-29.25.01-44.49Z"/>
  <path class="cls-1" d="m838.06,421.63c2.96,9.1,5.96,18.19,8.87,27.3,2.84,8.89,5.58,17.81,8.85,28.23,3.15-9.55,5.77-17.7,8.53-25.8,2.83-8.32,5.57-16.68,8.81-24.84,1.4-3.54.44-5.01-2.67-6.45-7.06-3.27-7.02-3.38-6.01-11.81h41.12c1.07,8.4,1.31,9.29-6.06,11.33-9.62,2.66-10.18,11.13-13.1,17.87-7.69,17.77-15.21,35.64-21.88,53.81-4.92,13.4-8.58,27.28-12.41,41.06-1.31,4.72-2.84,7.37-8.49,6.8-6.25-.64-12.61-.15-20.32-.15.96-3.87,1.22-7.47,2.72-10.44,3.9-7.71,8.36-15.13,12.56-22.69,1.48-2.66,2.28-4.88.84-8.45-9.51-23.53-18.38-47.31-27.75-70.89-1.02-2.56-3.52-5.3-6.01-6.34-7.86-3.3-7.99-3-7.41-11.85h51.16q1.62,8.53-11.33,13.29Z"/>
  <path class="cls-1" d="m996.84,318.63v9.35c-10.75,0-21.36.07-31.96-.13-.95-.02-2.21-1.65-2.74-2.79-.99-2.14-1.55-4.48-2.34-6.88-9.09,7.63-18.81,12.66-30.69,11.79-9.87-.72-17.72-4.67-21.25-14.6-2.99-8.41-1.93-17.6,5.08-24.85,8.38-8.65,19.16-11.43,30.56-12.45,4.93-.44,9.93-.07,15.92-.07-.51-6.25-.37-12.21-1.62-17.88-1.56-7.08-9.54-13.6-18.92-11.01-1.65.45-3.48,2.17-4.17,3.77-1.59,3.72-2.63,7.68-3.7,11.6-.63,2.31-1.46,3.73-4.3,3.58-4.64-.25-9.3-.07-14.69-.07,0-7.61-.11-15.03.13-22.44.03-1.02,1.62-2.61,2.75-2.89,8.2-2.04,16.43-3.96,24.72-5.63,8.83-1.78,17.64-1.51,26.24,1.37,14,4.7,18.16,12.51,18.96,26.56.79,13.95.41,27.98.04,41.97-.13,4.71,1.31,7.39,5.61,8.9,2.13.75,4.15,1.8,6.36,2.79Zm-37.83-28.62c-4.74,0-8.92-.4-12.98.08-7.95.94-11.85,5.14-12.07,9.3-.35,6.74,3.03,11.97,10.46,13.14,4.61.73,9.55-.62,14.59-1.06v-21.46Z"/>
  <path class="cls-1" d="m400.39,284c-1.09,14.53,10.8,28.01,25.19,29.01,10.4.73,20.13-1.79,29.8-6.06,1.21,1.64,2.44,3.3,3.85,5.19-8.57,9.5-19.34,14.51-31.5,16.82-11.38,2.17-22.38,1.2-33.14-3.65-13.14-5.92-19.31-16.63-21.5-30.03-2.08-12.73-.45-25.11,5.97-36.51,7.06-12.54,18.11-19.2,32.08-21.86,8.15-1.55,16.02-1.01,23.75,1.55,13.82,4.58,20.91,15.08,24.01,28.64,1.05,4.59,1.26,9.39,1.71,14.11.34,3.57-2.47,2.75-4.39,2.75-16.83.05-33.67.03-50.5.03-1.8,0-3.59,0-5.33,0Zm32.46-13.32c-.88-13.98-6.8-21.78-16.17-21.68-8.92.1-15.54,9.31-16.31,23.13,10.75-.48,21.45-.96,32.48-1.45Z"/>
  <path class="cls-1" d="m493.99,476.96c4.32,3.53,2.98,6.29-.58,9.19-8.84,7.19-18.92,11.2-30.15,12.93-10.16,1.57-19.89.47-29.22-3.59-11.54-5.03-18.74-13.69-21.41-26.19-3.23-15.15-2.1-29.41,6.22-42.99,9.65-15.77,30.94-22.58,48.98-19.61,18.07,2.98,29.1,19.39,30.2,35.04.25,3.55.83,7.08,1.33,11.19h-60.95c-.19,16.08,11.33,29.86,27.17,29.77,8.76-.05,17.49-3.27,26.24-5.08.78-.16,1.52-.46,2.17-.65Zm-23.02-36.26c.01-9.02-2.09-15.83-8.6-20.49-4.06-2.91-11.02-2.36-15.34,1.41-5.98,5.22-8.01,12.24-7.94,19.07h31.88Z"/>
  <path class="cls-1" d="m586.01,468.48c.86-.28,1.01-.36,1.17-.37,14.53-.8,14.83-.89,19.12,12.87,1.7,5.44,5.87,5.7,9.78,6.47,6.2,1.21,12.47,1.63,17.57-3.55,5.11-5.19,4.48-11.87-2.18-14.92-7.52-3.44-15.41-6.09-23.18-8.99-7.76-2.89-15.29-5.99-19.29-14.05-7.37-14.85-.2-30.18,14.48-35.88,18.18-7.06,36.29-4.91,54.37,1.27v23.65c-4.39,0-8.67.17-12.91-.12-1.03-.07-2.28-1.47-2.87-2.56-1.08-1.99-1.7-4.22-2.59-6.32-.85-2-1.35-5.15-2.8-5.71-3.98-1.52-8.35-2.45-12.61-2.61-2.92-.11-6.06,1.11-8.81,2.36-6.06,2.77-8.05,10.68-.42,14.99,7.93,4.48,17.07,6.87,25.75,9.96,8.78,3.13,16.49,7.43,19.34,17.08,4.35,14.77-3.05,26.87-16.16,32.86-12.84,5.86-26.26,5.89-39.88,3.18-4.64-.92-9.42-1.2-14.03-2.24-1.46-.33-3.62-2.15-3.67-3.36-.33-7.95-.17-15.93-.17-24.02Z"/>
  <path class="cls-1" d="m306.44,408.26h51.11q1.06,8.48-12.12,13.24c5.27,17.74,10.55,35.47,16.21,54.52,6.94-18.64,13.43-36.1,20.11-54.03-5.02-2.93-14.2-3.24-10.09-13.65h41.75c1.53,8.42,1.13,9.31-8.39,12.5-3.84,1.28-5.69,3.43-7.18,7.14-9.19,22.97-18.69,45.82-28.21,68.66-.43,1.04-2.05,2.21-3.15,2.24-6.64.21-13.3.1-19.85.1-9.38-24.76-18.69-49.22-27.9-73.71-1.14-3.04-3.31-4.34-6.17-5.47-7.19-2.85-7.14-3-6.11-11.55Z"/>
  <path class="cls-1" d="m113.48,169.25c6.61,6.18,13,12.14,19.38,18.13.97.91,2.02,1.79,2.76,2.88,1.81,2.68.73,5.03-2.46,4.63-5.97-.74-11.88-2.02-17.79-3.22-5.58-1.13-11.08-2.68-16.69-3.54-1.62-.25-4.01.8-5.2,2.06-4.64,4.89-8.8,10.23-13.4,15.17-4.07,4.37-8.14,3.51-9.91-2.18-2.02-6.52-3.55-13.19-5.16-19.82-.66-2.7-1.9-4.53-4.74-5.3-10.82-2.96-21.62-6.02-32.42-9.07-1.09-.31-2.31-.52-3.18-1.16-1.34-.99-2.43-2.32-3.62-3.51,1.6-1.1,3.07-2.82,4.83-3.21,10.81-2.39,21.69-4.47,33.22-6.79-.86-5.98-1.75-12.22-2.67-18.45-.43-2.9-1.12-5.77-1.35-8.68-.25-3.12,2.47-5.03,5.17-3.35,4.13,2.58,7.98,5.67,11.78,8.74,6.12,4.96,12.06,10.15,18.21,15.07.91.73,2.6.91,3.85.73,9.87-1.37,19.73-2.91,29.59-4.35.98-.14,2.02-.14,2.99.04,4.37.78,5.54,3.52,2.74,6.95-4.28,5.22-8.81,10.23-13.23,15.33-.74.85-1.52,1.66-2.68,2.92Z"/>
  <path class="cls-1" d="m609,272.86h-17.59c-2.01-6.32-4.03-12.78-6.14-19.21-1.77-5.38-4.1-6.45-9.54-5.58-12.58,2.01-18.98,10.32-21.48,21.77-2.43,11.16-.92,22,5.8,31.75,6.68,9.69,18.06,12.97,28.11,11.16,6.17-1.11,12.13-3.46,18.77-5.43.75,1.34,1.77,3.15,2.78,4.94-12.66,16.71-38.31,21.95-57.06,14.6-16.12-6.31-23.9-18.52-25.79-35.52-1.71-15.38,2.2-28.89,11.98-40.44,6.35-7.51,14.99-12.05,24.8-13.86,14.51-2.68,28.27-.06,41.58,5.96,2.76,1.25,3.95,2.81,3.86,5.98-.24,7.79-.08,15.6-.08,23.89Z"/>
  <path class="cls-1" d="m738.8,422.87h-11.36c-.19-.8-.38-1.26-.4-1.72-.43-8.71-.48-8.87,7.8-11.46,3.92-1.23,6.22-3.13,7.32-7.37,1.59-6.11,4.1-11.99,6.28-18.14h16.39v23.77h29.94v14.9h-29.76c0,11.15-.1,21.76.04,32.37.07,5.26.75,10.51.85,15.78.22,11.65,12.66,15.26,21.45,13.8,2.55-.42,5.03-1.21,8.34-2.02.77,3.3,1.51,6.46,2.5,10.66-5.09,1.7-10,3.87-15.14,4.95-10.2,2.15-20.44,2.56-30.28-2.06-8.51-3.99-12.29-11.22-12.65-20.03-.68-16.75-.77-33.53-1.11-50.29-.02-.81-.1-1.61-.19-3.13Z"/>
  <path class="cls-1" d="m560.8,497.78h-53.45v-9.28q12.65-4.42,12.65-17.95c0-15.3,0-30.59,0-46.43h-15.16c-.44-.82-.71-1.09-.73-1.37-.36-8.24-.4-8.4,7.69-10.74,7.63-2.21,15.34-4.16,23.08-5.96,4.35-1.01,7.37.36,7.44,5.56.01,1.06.74,2.11.97,2.72,6.58-2.63,13.01-5.78,19.8-7.69,4.17-1.18,8.94-.96,13.33-.47,4.35.49,2.64,4.5,2.37,6.87-.73,6.47-2.04,12.87-3.25,20.08-1.74-.35-3.66-.42-5.3-1.12-5.25-2.24-10.36-4.83-15.62-7.03-2.78-1.16-5.78-1.78-9.11-2.77-.25,2.04-.5,3.14-.5,4.25-.02,17.48.07,34.97-.1,52.45-.03,3.01.98,4.49,3.67,5.36,4.02,1.3,7.99,2.76,12.22,4.22v9.29Z"/>
  <path class="cls-1" d="m208.83,563.93c4.79,1.71,9.23,3.12,13.52,4.89,4.53,1.86,8.83,4.29,13.4,6.03,2.99,1.13,6.27,1.95,9.45,2.06,8.16.28,16.33.11,24.5.09,3.97-.01,5.97,1.39,4.32,5.65-.11.29.08.74-.07.98-5.67,9.09-1.13,15.16,5.84,20.8,2.55,2.06,4.43,4.93,6.62,7.43-.26.46-.53.92-.79,1.39-9.35-.48-18.71-1-28.07-1.38-1.55-.06-3.42.06-4.65.85-4.66,3-9.2,6.22-13.63,9.56-3.35,2.53-6.06,1.7-8.56-1.09-1.53-1.71-3.32-3.35-4.29-5.36-5.07-10.55-15.25-12.24-24.98-14.86-4.55-1.22-9.07-2.58-13.54-4.06-1.45-.48-2.7-1.57-5.35-3.18,6.33-3.31,11.52-6.21,16.89-8.75,3.8-1.8,6.3-4.08,6.7-8.63.32-3.68,1.54-7.28,2.7-12.4Z"/>
  <path class="cls-1" d="m722.9,488.53v9.08h-53.23c-1.82-8.05-1.78-8.69,6.17-10.86,5.69-1.55,7.5-4.25,7.34-10.24-.48-17.28-.17-34.59-.17-52.42h-14.48c-.25-.97-.46-1.42-.48-1.88-.23-7.8-.3-8.08,7.33-10.12,10.81-2.89,21.3-7.9,33.62-5.62,0,1.64,0,3.4,0,5.17,0,22.49.06,44.97-.07,67.46-.02,3.43.54,5.47,4.41,6.15,3.16.55,6.16,2.07,9.56,3.28Z"/>
  <path class="cls-1" d="m480.82,253.89h-14.58v-9.75c13.35-2.34,25.83-9.57,40.76-7.92,0,1.94,0,3.72,0,5.49,0,22.48.1,44.97-.1,67.45-.03,3.74.82,5.99,4.62,6.67.8.14,1.6.35,2.37.62q7.74,2.63,6.66,11.29h-53.1q-1.04-8.32,6.48-10.79c2.29-.76,4.55-1.61,6.89-2.44v-60.62Z"/>
  <path class="cls-1" d="m1239.09,322.97v-85.97c2.31,0,4.56-.05,6.8,0,11.74.32,23.64-.41,35.19,1.24,19.11,2.72,31.44,19.59,31.02,38.27-.23,10.08-.14,19.97-5.96,28.9-6.86,10.51-16.95,16.21-28.84,17.3-12.5,1.15-25.19.26-38.21.26Zm12.01-9.97c6.24,0,12.08.46,17.82-.09,13.76-1.33,25.32-6.18,29.63-21.78,3.77-13.65-.4-31.66-9.86-37.78-11.61-7.5-24.56-6.77-37.58-6.04v65.69Z"/>
  <path class="cls-1" d="m252.12,497.66v-9.19c3.54-1.15,7.32-2.08,10.8-3.65,1.36-.61,2.93-2.67,2.95-4.08.2-18.64.13-37.28.13-56.47h-16c0-2.29.14-4.05-.03-5.79-.33-3.31.7-4.88,4.31-5.63,6.67-1.38,13.11-3.84,19.76-5.28,5.36-1.16,10.9-1.47,16.8-2.22v78.08c4.74,1.74,9.26,3.4,13.98,5.14v9.08h-52.7Z"/>
  <path class="cls-1" d="m1610.24,255.78c-3.46,1.78-6.49,3.34-9.78,5.02-1.04-1.35-2.34-2.6-3.11-4.12-5.41-10.61-22.25-12.43-31.28-8.17-3.97,1.88-7.03,4.76-7.11,9.8-.09,5.27,3,8.58,7.24,10.17,8.65,3.24,17.66,5.51,26.37,8.6,7.23,2.57,14.26,5.6,17.49,13.63,5.45,13.58-1.62,27.89-15.72,31.54-11.95,3.1-23.74,3.37-35.1-2.24-6.45-3.19-10.74-8.43-13.71-14.92-1.2-2.62-.28-3.98,2.02-5,1.19-.53,2.56-.9,3.5-1.73,2.45-2.17,4.03-1.74,5.2,1.22,5.11,12.93,22.08,16.62,34.31,12.15,6.38-2.33,8.52-5.48,8.46-11.71-.04-5.02-3.66-10.2-8.82-11.92-7.54-2.52-15.29-4.47-22.74-7.23-4.83-1.78-10.05-3.72-13.79-7.04-12.16-10.8-8.51-30.11,6.84-35.43,12.08-4.19,24.56-4.53,36.43,1.6,6.37,3.29,10.75,8.39,13.33,15.78Z"/>
  <path class="cls-1" d="m1369.79,283.01c1.09-14.2-11.9-20.38-22.16-18.67-6.62,1.1-13,3.66-19.97,5.7-.96-1.82-2.31-4.39-3.86-7.34,14.5-8.18,29.42-11.03,45.09-4.62,8.16,3.34,12.5,10.63,12.9,18.95.73,15.09.21,30.24.21,45.67h-10.79c-.11-1.69-.22-3.32-.37-5.53-9.29,7.95-19.9,8.22-30.76,5.84-11.92-2.61-17.69-10.5-18.18-22.24-.5-12,7.34-19.76,18.39-22.67,10.32-2.72,20.14-1.02,29.51,4.92Zm-17.44,3c-1.96,0-3.49-.2-4.94.04-6.19,1.02-10.91,4.17-13.35,10.1-2.37,5.78-.05,10.3,3.99,14.48,5.89,6.08,17.89,6.86,25.85,1.93,8.58-5.32,9.44-14.53,2.38-21.84-4.06-4.2-8.98-5.03-13.93-4.71Z"/>
  <path class="cls-1" d="m1496.99,322.79h-10.82c-.11-1.82-.21-3.45-.33-5.5-10.57,8.45-22.4,8.75-34.09,4.76-11.25-3.84-16.12-12.14-14.75-25.87.8-8.07,8.6-15.77,18.36-18.14,10.4-2.53,20.14-.84,29.31,4.85.83-9.26-4.9-16.21-13.38-17.99-10.19-2.14-18.88,1.53-28.13,5.91-1.36-2.51-2.79-5.13-4.41-8.11,14.61-8.12,29.55-11.07,45.21-4.59,8.13,3.37,12.44,10.68,12.83,19.01.71,15.09.2,30.23.2,45.67Zm-10.73-23.67c-.83-1.62-1.81-4.62-3.67-6.91-5.03-6.19-18.41-8.74-25.33-4.83-5.15,2.91-9.46,7.06-9.12,13.47.33,6.18,4.12,10.69,9.76,13.05,7.48,3.13,14.79,2.55,21.77-1.98,4.22-2.74,5.98-6.57,6.59-12.8Z"/>
  <path class="cls-1" d="m1792.46,294.04h-56.2c1.99,17.58,24.79,28.74,41.15,10.21.72.53,1.42,1.13,2.19,1.62,7.18,4.55,7.32,6.35.48,11.5-18.7,14.06-50.43,7.36-54.78-20.45-2.68-17.12,1.6-35.18,23.99-40.86,20.54-5.2,37.76,4.3,41.69,26.93.59,3.37.91,6.79,1.47,11.05Zm-12.93-8.23c1.18-9.89-7.32-20-20.71-20.63-9.73-.46-21.54,6.76-22.49,20.63h43.19Z"/>
  <path class="cls-1" d="m1960.98,293.85c6.74,22.27,23.89,26.25,41.5,10.43,1.45,1.01,2.9,2.04,4.36,3.05q4.92,3.38.57,7.76c-10.1,10.2-24.59,11.51-36.71,6.97-13.63-5.1-20.43-16.24-20.77-30.34-.27-11.01,2.04-20.72,10.38-28.57,11.41-10.73,34.49-11.99,46.24.14,7.92,8.17,11.17,18.59,10.29,30.56h-55.85Zm43.79-8.12c.32-10.52-7.47-19.6-20.7-20.55-8.93-.64-21.25,5.71-22.86,20.55h43.56Z"/>
  <path class="cls-1" d="m1711.42,471.92h-56.22c1.43,8.64,5.7,14.74,13.39,18.03,11.1,4.75,20.01.64,27.76-7.71.79.57,1.52,1.15,2.31,1.65,7.15,4.54,7.28,6.38.4,11.51-18.86,14.07-50.49,7.18-54.75-20.53-2.69-17.51,1.82-35.55,24.5-40.96,20.68-4.93,36.91,4.62,41.17,26.63.68,3.52.92,7.12,1.45,11.38Zm-12.85-8.13c1.01-10.21-7.58-20.02-20.79-20.62-9.85-.44-21.62,6.97-22.4,20.62h43.19Z"/>
  <path class="cls-1" d="m1397.36,447.89c-3.53,1.56-6.6,2.91-9.9,4.37-3.19-6.13-7.95-10.3-14.47-10.56-4.82-.19-9.94,1.03-14.5,2.74-3.38,1.26-3.88,8.63-.61,10.65,4.72,2.93,10.13,4.79,15.33,6.89,6,2.43,12.86,3.54,18,7.14,11.45,8.02,9,26.26-4.27,31.18-12.54,4.64-25.63,5.57-37.21-3.16-3.45-2.6-5.77-6.7-9.12-10.72,4.24-2.23,7.32-3.85,10.65-5.61,3.83,7.82,9.69,12.74,18.49,12.41,4.36-.16,9.14-.84,12.84-2.9,2.07-1.15,3.45-5.74,3.06-8.49-.35-2.46-3.12-5.59-5.56-6.56-6.61-2.62-13.7-4.01-20.44-6.33-6.04-2.08-11.98-4.71-14.61-11.26-4.02-9.99.99-20.87,12.17-24.14,9.52-2.78,19.46-3.07,28.85,1.48,5.27,2.56,8.73,6.78,11.3,12.86Z"/>
  <path class="cls-1" d="m1282,500.78h-11.73v-66.4h10.7v9.93c9.13-11.95,20.54-13.39,32.96-10.3,10.2,2.54,16.36,12.02,16.86,21.4.79,14.93.21,29.94.21,45.25h-10.99c0-11.85.18-23.63-.07-35.41-.13-6.24-1.51-12.15-6.11-17.06-5.34-5.7-11.99-6.37-18.64-4.63-8,2.1-13.01,8.9-13.12,16.56-.2,13.4-.05,26.81-.05,40.65Z"/>
  <path class="cls-1" d="m1817,322.76h-11.75v-66.4h10.55v9.85c2.25-2.43,3.61-4.4,5.42-5.77,8.43-6.38,17.99-7.13,27.77-4.4,10.39,2.9,15.99,11.09,16.72,20.95,1.11,15.05.29,30.25.29,45.7h-10.99c0-11.93.1-23.71-.03-35.5-.12-10.78-5.75-19.38-13.66-21.57-12.17-3.37-23.93,4.41-24.24,17.08-.33,13.22-.07,26.46-.07,40.06Z"/>
  <path class="cls-1" d="m1578,434.1h10.7c.1,1.5.28,2.92.28,4.35.02,12.65.04,25.31,0,37.96-.04,13.83-11.86,25.57-25.78,25.57-6.37,0-12.68.42-18.76-2.78-8.24-4.33-13.66-11.03-14.18-19.87-.88-14.89-.24-29.87-.24-45.06h10.97c0,3.35-.08,6.77.02,10.19.29,10.42.65,20.84.98,31.26.45,14.49,16.69,20.09,27.11,13.72,7.92-4.84,8.5-12.79,8.79-20.58.42-11.43.11-22.89.11-34.74Z"/>
  <path class="cls-1" d="m1686.05,273.45c-3.17,1.59-6.08,3.05-9.34,4.7-2.58-6.19-7.45-10.27-13.54-11.8-4.36-1.1-9.54-1.1-13.85.16-10.3,3.02-16.7,13.52-15.13,25.76,1.45,11.33,5.96,18.29,19.39,21.53,7.72,1.86,18.14-3.89,23.17-12.86,3.02,1.49,6.06,3,9.05,4.48-1.9,10.75-15.48,19.44-29.73,19.02-21.52-.63-31.45-14.74-32.92-28.24-2.88-26.5,10.68-38.18,26.13-40.93,16.93-3.02,32,3.84,36.76,18.19Z"/>
  <path class="cls-1" d="m1932.76,300.89c3.25,1.63,6.15,3.09,9.02,4.53-1.82,10.68-15.39,19.43-29.69,19.01-21.45-.63-31.44-14.6-32.93-28.22-2.9-26.44,10.58-38.16,26.1-40.94,16.83-3.02,31.94,3.72,36.77,18.11-2.94,1.51-5.94,3.05-9.3,4.78-2.61-6.19-7.46-10.27-13.55-11.81-4.36-1.1-9.54-1.11-13.85.15-10.31,3.01-16.7,13.48-15.15,25.74,1.43,11.29,5.93,18.3,19.37,21.54,7.73,1.87,18.19-3.88,23.2-12.89Z"/>
  <path class="cls-1" d="m335,619.91c7.96,2.89,14.88,6.64,22.19,7.72,7.51,1.11,15.4-.38,23.54-.75.1,2,.72,3.81.17,5.15-2.6,6.41,1.07,10.12,5.34,13.8,1.25,1.08,2.1,2.64,4.06,5.18-6.33,0-11.23.31-16.07-.09-5.13-.42-9.1,1.41-13.12,4.34-7.66,5.57-9,5.97-14.47-1.56-4.9-6.74-11.83-6.57-18.24-8.65-3.33-1.08-6.78-1.81-10.17-2.71-.09-.46-.18-.92-.27-1.38,3.64-1.98,7.1-4.46,10.96-5.81,5.1-1.78,6.96-4.86,6.12-9.99-.18-1.12-.03-2.3-.03-5.25Z"/>
  <path class="cls-1" d="m1401,265.11h-9.65v-9.06h9.65c0-3.48.18-6.45-.04-9.39-.3-4.11-.03-7.38,5.48-6.91,1.65.14,3.36-.55,5.49-.94v17.06h16.79v8.89h-16.72c0,10.12-.08,19.72.04,29.31.04,3.26.24,6.58.94,9.75,1.6,7.32,4.11,9.16,11.56,9.19,1.97,0,3.93,0,6.18,0v10.84c-8.23.48-16.62.5-23.96-4.07-4.38-2.73-5.71-7.82-5.74-12.95-.05-12.16-.02-24.33-.02-36.49v-5.22Z"/>
  <path class="cls-1" d="m1425.12,416.78v17.12h16.52v8.89h-16.65c0,3.43-.07,6.51.01,9.58.26,9.75-.08,19.59,1.08,29.23.94,7.77,3.93,9.38,11.74,9.4,1.82,0,3.64,0,6.17,0v11.84c-7.39-1.19-14.37-1.76-21.02-3.53-6.9-1.84-8.79-7.97-8.9-14.29-.24-13.8-.08-27.6-.08-41.94h-9.76v-8.88h9.76c0-3.45.22-6.42-.05-9.34-.41-4.4.29-7.53,5.75-7.24,1.56.08,3.14-.46,5.42-.83Z"/>
  <path class="cls-1" d="m1499.93,417.12v16.74h16.79v8.89h-16.72c0,10.12-.08,19.72.04,29.31.04,3.26.24,6.58.94,9.75,1.6,7.32,4.11,9.16,11.55,9.19,1.97,0,3.93,0,6.18,0v10.84c-8.23.48-16.62.5-23.95-4.07-4.39-2.73-5.71-7.82-5.74-12.95-.05-12.16-.02-24.33-.02-36.49v-5.22h-9.65v-8.89h9.65c0-3.09.39-5.89-.08-8.55-1.02-5.69,1.6-8.09,6.84-8.54,1.27-.11,2.55-.02,4.17-.02Z"/>
  <path class="cls-1" d="m1621.99,416.79v17.13h16.76v8.9h-15.78c0,13.56-.44,26.6.19,39.58.3,6.19,4.1,8.48,10.46,8.59,2.29.04,4.58,0,7.37,0,0,2.06,0,3.68,0,5.3s0,3.31,0,5.54c-8.41.36-16.59.51-23.9-3.92-4.76-2.88-6.01-7.99-6.06-13.21-.12-13.65-.04-27.3-.04-41.5h-9.68v-9.06h9.68c0-3.26.28-6.22-.06-9.1-.56-4.73.7-7.61,6.01-7.58,1.45,0,2.89-.38,5.04-.69Z"/>
  <path class="cls-1" d="m1250.66,500.77h-11.41v-85.36h11.41v85.36Z"/>
  <path class="cls-1" d="m278.93,363c11.45.37,15.62,5.24,16.01,14.28.37,8.53-6.93,14.94-16.15,14.59-9.37-.35-16.25-6.42-15.7-14.52.56-8.42,5.23-14.4,15.84-14.35Z"/>
  <path class="cls-1" d="m494.45,222c-9.12,0-15.56-6.13-15.44-14.71.11-8.27,6.9-14.32,16.03-14.27,9.18.05,15.78,6.19,15.95,14.86.16,8.24-6.73,14.13-16.53,14.12Z"/>
  <path class="cls-1" d="m1466.66,500.77h-10.41v-66.36h10.41v66.36Z"/>
  <path class="cls-1" d="m1699.34,256.23h10.4v66.36h-10.4v-66.36Z"/>
  <path class="cls-1" d="m696.35,362.96c6.57-.09,11.72,1.72,14.63,7.22,2.95,5.58,3.05,11.78-1.45,16.21-2.82,2.78-7.54,4.04-11.64,5-6.33,1.49-13.79-2.94-15.86-8.47-3.75-10.02,3.37-20.65,14.33-19.97Z"/>
  <path class="cls-1" d="m521.54,660.85c-4.57,1.72-8.56,3.43-12.69,4.67-1.76.53-4.04.58-5.72-.09-3.68-1.46-7.13-3.52-11.35-5.69,2.89-2.88,5.8-6.17,9.17-8.9.96-.78,3.25.14,4.93.2,2.84.1,5.71.4,8.52.13,2.7-.25,4.35-.11,4.72,3.23.24,2.22,1.59,4.32,2.43,6.45Z"/>
  <path class="cls-1" d="m1469,415.44c-.09,5.49-2.38,7.69-7.88,7.56-5.03-.12-7.22-2.54-7.11-7.83.11-5.2,2.45-7.23,8.27-7.17,4.95.05,6.81,2.11,6.72,7.44Z"/>
  <path class="cls-1" d="m1704.74,230c5.25-.05,7.24,1.84,7.26,6.9.02,5.76-2.04,8.04-7.35,8.09-5.23.05-7.58-2.19-7.65-7.29-.07-5.43,2.16-7.65,7.74-7.7Z"/>
</svg>